<?xml version="1.0" encoding="UTF-8"?><svg id="Layer_2" xmlns="http://www.w3.org/2000/svg" viewBox="0 0 25.6 24.9"><defs><style>.cls-1{fill:#173830;stroke-width:0px;}</style></defs><g id="Layer_1-2"><path class="cls-1" d="M15.03,24.79c-.57,0-1.2.08-1.78.11.11-1.83.3-4.62.3-9.97,0-6.61-.16-7.92-.3-9.73.57.03,1.2.11,1.78.11s1.2-.08,1.78-.11c-.14,1.8-.3,3.11-.3,9.73,0,5.36.19,8.14.3,9.97-.57-.03-1.2-.11-1.78-.11Z"/><path class="cls-1" d="M23.36,24.76c-.73,0-1.52.1-2.24.14.14-2.31.38-5.84.38-12.6,0-8.36-.21-10.01-.38-12.29.73.03,1.52.14,2.24.14s1.52-.1,2.24-.14c-.17,2.28-.38,3.94-.38,12.29,0,6.77.24,10.29.38,12.6-.73-.03-1.52-.14-2.24-.14Z"/><path class="cls-1" d="M7.63,24.82c-.43,0-.89.06-1.32.08.08-1.36.22-3.43.22-7.42,0-4.92-.12-5.89-.22-7.23.43.02.89.08,1.32.08s.89-.06,1.32-.08c-.1,1.34-.22,2.32-.22,7.23,0,3.98.14,6.06.22,7.42-.43-.02-.89-.08-1.32-.08Z"/><path class="cls-1" d="M.89,24.84c-.29,0-.6.04-.89.05.05-.92.15-2.31.15-5,0-3.31-.08-3.97-.15-4.87.29.01.6.05.89.05s.6-.04.89-.05c-.07.9-.15,1.56-.15,4.87,0,2.68.1,4.08.15,5-.29-.01-.6-.05-.89-.05Z"/></g></svg>