<?xml version="1.0" encoding="UTF-8"?><svg id="Layer_2" xmlns="http://www.w3.org/2000/svg" viewBox="0 0 608.59 415.78"><defs><style>.cls-1{fill:#000;stroke-width:0px;}.cls-2{opacity:.1;}</style></defs><g id="Layer_1-2"><g class="cls-2"><path class="cls-1" d="M400.02,415.47c-1.64,0-3.43.23-5.06.31.31-5.22.86-357.94.86-373.22,0-18.86-.47-22.6-.86-27.74,1.64.08,3.43.31,5.06.31s3.43-.23,5.06-.31c-.39,5.14-.86,8.88-.86,27.74,0,15.27.55,368,.86,373.22-1.64-.08-3.43-.31-5.06-.31Z"/><path class="cls-1" d="M423.76,415.38c-2.07,0-4.33.3-6.4.39.39-6.6,1.08-361.42,1.08-380.72,0-23.83-.59-28.56-1.08-35.06,2.07.1,4.33.39,6.4.39s4.33-.3,6.4-.39c-.49,6.5-1.08,11.23-1.08,35.06,0,19.3.69,374.12,1.08,380.72-2.07-.1-4.33-.39-6.4-.39Z"/><path class="cls-1" d="M378.92,415.55c-1.22,0-2.55.17-3.77.23.23-3.88.64-9.79.64-21.15,0-14.02-.35-361.58-.64-365.41,1.22.06,2.55.23,3.77.23s2.55-.17,3.77-.23c-.29,3.82-.64,351.38-.64,365.41,0,11.36.41,17.27.64,21.15-1.22-.06-2.55-.23-3.77-.23Z"/><path class="cls-1" d="M359.69,415.62c-.82,0-1.72.12-2.54.16.16-2.62.43-6.6.43-14.25,0-9.45-.23-356.1-.43-358.67.82.04,1.72.16,2.54.16s1.72-.12,2.54-.16c-.19,2.58-.43,349.23-.43,358.67,0,7.65.27,11.63.43,14.25-.82-.04-1.72-.16-2.54-.16Z"/></g><g class="cls-2"><path class="cls-1" d="M298.08.31c1.64,0,3.43-.23,5.06-.31-.31,5.22-.86,357.94-.86,373.22,0,18.86.47,22.6.86,27.74-1.64-.08-3.43-.31-5.06-.31s-3.43.23-5.06.31c.39-5.14.86-8.88.86-27.74,0-15.27-.55-368-.86-373.22,1.64.08,3.43.31,5.06.31Z"/><path class="cls-1" d="M274.34.39c2.07,0,4.33-.3,6.4-.39-.39,6.6-1.08,361.42-1.08,380.72,0,23.83.59,28.56,1.08,35.06-2.07-.1-4.33-.39-6.4-.39s-4.33.3-6.4.39c.49-6.5,1.08-11.23,1.08-35.06,0-19.3-.69-374.12-1.08-380.72,2.07.1,4.33.39,6.4.39Z"/><path class="cls-1" d="M319.19.23c1.22,0,2.55-.17,3.77-.23-.23,3.88-.64,9.79-.64,21.15,0,14.02.35,361.58.64,365.41-1.22-.06-2.55-.23-3.77-.23s-2.55.17-3.77.23c.29-3.82.64-351.38.64-365.41,0-11.36-.41-17.27-.64-21.15,1.22.06,2.55.23,3.77.23Z"/><path class="cls-1" d="M338.41.16c.82,0,1.72-.12,2.54-.16-.16,2.62-.43,6.6-.43,14.25,0,9.45.23,356.1.43,358.67-.82-.04-1.72-.16-2.54-.16s-1.72.12-2.54.16c.19-2.58.43-349.23.43-358.67,0-7.65-.27-11.63-.43-14.25.82.04,1.72.16,2.54.16Z"/></g><g class="cls-2"><path class="cls-1" d="M225.73,415.47c-1.64,0-3.43.23-5.06.31.31-5.22.86-357.94.86-373.22,0-18.86-.47-22.6-.86-27.74,1.64.08,3.43.31,5.06.31s3.43-.23,5.06-.31c-.39,5.14-.86,8.88-.86,27.74,0,15.27.55,368,.86,373.22-1.64-.08-3.43-.31-5.06-.31Z"/><path class="cls-1" d="M249.47,415.38c-2.07,0-4.33.3-6.4.39.39-6.6,1.08-361.42,1.08-380.72,0-23.83-.59-28.56-1.08-35.06,2.07.1,4.33.39,6.4.39s4.33-.3,6.4-.39c-.49,6.5-1.08,11.23-1.08,35.06,0,19.3.69,374.12,1.08,380.72-2.07-.1-4.33-.39-6.4-.39Z"/><path class="cls-1" d="M204.63,415.55c-1.22,0-2.55.17-3.77.23.23-3.88.64-9.79.64-21.15,0-14.02-.35-361.58-.64-365.41,1.22.06,2.55.23,3.77.23s2.55-.17,3.77-.23c-.29,3.82-.64,351.38-.64,365.41,0,11.36.41,17.27.64,21.15-1.22-.06-2.55-.23-3.77-.23Z"/><path class="cls-1" d="M185.4,415.62c-.82,0-1.72.12-2.54.16.16-2.62.43-6.6.43-14.25,0-9.45-.23-356.1-.43-358.67.82.04,1.72.16,2.54.16s1.72-.12,2.54-.16c-.19,2.58-.43,349.23-.43,358.67,0,7.65.27,11.63.43,14.25-.82-.04-1.72-.16-2.54-.16Z"/></g><g class="cls-2"><path class="cls-1" d="M42.87,415.47c-1.64,0-3.43.23-5.06.31.31-5.22.86-357.94.86-373.22,0-18.86-.47-22.6-.86-27.74,1.64.08,3.43.31,5.06.31s3.43-.23,5.06-.31c-.39,5.14-.86,8.88-.86,27.74,0,15.27.55,368,.86,373.22-1.64-.08-3.43-.31-5.06-.31Z"/><path class="cls-1" d="M66.6,415.38c-2.07,0-4.33.3-6.4.39.39-6.6,1.08-361.42,1.08-380.72,0-23.83-.59-28.56-1.08-35.06,2.07.1,4.33.39,6.4.39s4.33-.3,6.4-.39c-.49,6.5-1.08,11.23-1.08,35.06,0,19.3.69,374.12,1.08,380.72-2.07-.1-4.33-.39-6.4-.39Z"/><path class="cls-1" d="M21.76,415.55c-1.22,0-2.55.17-3.77.23.23-3.88.64-9.79.64-21.15,0-14.02-.35-361.58-.64-365.41,1.22.06,2.55.23,3.77.23s2.55-.17,3.77-.23c-.29,3.82-.64,351.38-.64,365.41,0,11.36.41,17.27.64,21.15-1.22-.06-2.55-.23-3.77-.23Z"/><path class="cls-1" d="M2.54,415.62c-.82,0-1.72.12-2.54.16.16-2.62.43-6.6.43-14.25C.43,392.08.2,45.43,0,42.86c.82.04,1.72.16,2.54.16s1.72-.12,2.54-.16c-.19,2.58-.43,349.23-.43,358.67,0,7.65.27,11.63.43,14.25-.82-.04-1.72-.16-2.54-.16Z"/></g><g class="cls-2"><path class="cls-1" d="M489.23,415.47c-1.64,0-3.43.23-5.06.31.31-5.22.86-357.94.86-373.22,0-18.86-.47-22.6-.86-27.74,1.64.08,3.43.31,5.06.31s3.43-.23,5.06-.31c-.39,5.14-.86,8.88-.86,27.74,0,15.27.55,368,.86,373.22-1.64-.08-3.43-.31-5.06-.31Z"/><path class="cls-1" d="M512.97,415.38c-2.07,0-4.33.3-6.4.39.39-6.6,1.08-361.42,1.08-380.72,0-23.83-.59-28.56-1.08-35.06,2.07.1,4.33.39,6.4.39s4.33-.3,6.4-.39c-.49,6.5-1.08,11.23-1.08,35.06,0,19.3.69,374.12,1.08,380.72-2.07-.1-4.33-.39-6.4-.39Z"/><path class="cls-1" d="M468.13,415.55c-1.22,0-2.55.17-3.77.23.23-3.88.64-9.79.64-21.15,0-14.02-.35-361.58-.64-365.41,1.22.06,2.55.23,3.77.23s2.55-.17,3.77-.23c-.29,3.82-.64,351.38-.64,365.41,0,11.36.41,17.27.64,21.15-1.22-.06-2.55-.23-3.77-.23Z"/><path class="cls-1" d="M448.91,415.62c-.82,0-1.72.12-2.54.16.16-2.62.43-6.6.43-14.25,0-9.45-.23-356.1-.43-358.67.82.04,1.72.16,2.54.16s1.72-.12,2.54-.16c-.19,2.58-.43,349.23-.43,358.67,0,7.65.27,11.63.43,14.25-.82-.04-1.72-.16-2.54-.16Z"/></g><g class="cls-2"><path class="cls-1" d="M565.72.31c1.64,0,3.43-.23,5.06-.31-.31,5.22-.86,357.94-.86,373.22,0,18.86.47,22.6.86,27.74-1.64-.08-3.43-.31-5.06-.31s-3.43.23-5.06.31c.39-5.14.86-8.88.86-27.74,0-15.27-.55-368-.86-373.22,1.64.08,3.43.31,5.06.31Z"/><path class="cls-1" d="M541.98.39c2.07,0,4.33-.3,6.4-.39-.39,6.6-1.08,361.42-1.08,380.72,0,23.83.59,28.56,1.08,35.06-2.07-.1-4.33-.39-6.4-.39s-4.33.3-6.4.39c.49-6.5,1.08-11.23,1.08-35.06,0-19.3-.69-374.12-1.08-380.72,2.07.1,4.33.39,6.4.39Z"/><path class="cls-1" d="M586.82.23c1.22,0,2.55-.17,3.77-.23-.23,3.88-.64,9.79-.64,21.15,0,14.02.35,361.58.64,365.41-1.22-.06-2.55-.23-3.77-.23s-2.55.17-3.77.23c.29-3.82.64-351.38.64-365.41,0-11.36-.41-17.27-.64-21.15,1.22.06,2.55.23,3.77.23Z"/><path class="cls-1" d="M606.05.16c.82,0,1.72-.12,2.54-.16-.16,2.62-.43,6.6-.43,14.25,0,9.45.23,356.1.43,358.67-.82-.04-1.72-.16-2.54-.16s-1.72.12-2.54.16c.19-2.58.43-349.23.43-358.67,0-7.65-.27-11.63-.43-14.25.82.04,1.72.16,2.54.16Z"/></g><g class="cls-2"><path class="cls-1" d="M123.79.31c1.64,0,3.43-.23,5.06-.31-.31,5.22-.86,357.94-.86,373.22,0,18.86.47,22.6.86,27.74-1.64-.08-3.43-.31-5.06-.31s-3.43.23-5.06.31c.39-5.14.86-8.88.86-27.74,0-15.27-.55-368-.86-373.22,1.64.08,3.43.31,5.06.31Z"/><path class="cls-1" d="M100.06.39c2.07,0,4.33-.3,6.4-.39-.39,6.6-1.08,361.42-1.08,380.72,0,23.83.59,28.56,1.08,35.06-2.07-.1-4.33-.39-6.4-.39s-4.33.3-6.4.39c.49-6.5,1.08-11.23,1.08-35.06,0-19.3-.69-374.12-1.08-380.72,2.07.1,4.33.39,6.4.39Z"/><path class="cls-1" d="M144.9.23c1.22,0,2.55-.17,3.77-.23-.23,3.88-.64,9.79-.64,21.15,0,14.02.35,361.58.64,365.41-1.22-.06-2.55-.23-3.77-.23s-2.55.17-3.77.23c.29-3.82.64-351.38.64-365.41,0-11.36-.41-17.27-.64-21.15,1.22.06,2.55.23,3.77.23Z"/><path class="cls-1" d="M164.12.16c.82,0,1.72-.12,2.54-.16-.16,2.62-.43,6.6-.43,14.25,0,9.45.23,356.1.43,358.67-.82-.04-1.72-.16-2.54-.16s-1.72.12-2.54.16c.19-2.58.43-349.23.43-358.67,0-7.65-.27-11.63-.43-14.25.82.04,1.72.16,2.54.16Z"/></g></g></svg>